<?xml version="1.0" standalone="no"?>
<!DOCTYPE svg PUBLIC "-//W3C//DTD SVG 1.1//EN" "http://www.w3.org/Graphics/SVG/1.1/DTD/svg11.dtd">
<svg xmlns="http://www.w3.org/2000/svg" id="Layer_1" data-name="Layer 1" viewBox="0 0 1685.71 314.29" width="1685.7099609375" height="314.2900085449219">
  <defs>
    <style>
      .cls-1 {
        fill: #c06948;
      }
    </style>
  </defs>
  <g>
    <path class="cls-1" d="M184.98,172.82c16.93-13.1,27.65-32.51,27.65-54.19,0-39.44-35.5-71.41-79.29-71.41v.04h-40.57v191.5h40.57v-48.72c4.74,0,9.38-.38,13.88-1.09l31.15,49.81h47.84l-41.24-65.94ZM133.34,149.56v-61.81c21.37,0,38.69,13.84,38.69,30.91s-17.32,30.91-38.69,30.91Z"/>
    <path class="cls-1" d="M759.29,172.82c16.93-13.1,27.65-32.51,27.65-54.19,0-39.44-35.5-71.41-79.29-71.41v.04h-40.57v191.5h40.57v-48.72c4.74,0,9.38-.38,13.88-1.09l31.15,49.81h47.84l-41.24-65.94ZM707.65,149.56v-61.81c21.37,0,38.69,13.84,38.69,30.91s-17.32,30.91-38.69,30.91Z"/>
    <polygon class="cls-1" points="354.83 87.54 354.83 46.99 235.13 46.99 235.13 238.76 256.39 238.76 275.69 238.76 354.83 238.76 354.83 198.2 275.69 198.2 275.69 162.11 339.92 162.11 339.92 121.54 275.69 121.54 275.69 87.54 354.83 87.54"/>
    <polygon class="cls-1" points="658.18 87.54 658.18 46.99 538.48 46.99 538.48 238.76 559.74 238.76 579.05 238.76 658.18 238.76 658.18 198.2 579.05 198.2 579.05 162.11 643.27 162.11 643.27 121.54 579.05 121.54 579.05 87.54 658.18 87.54"/>
    <polygon class="cls-1" points="1056.92 87.54 1056.92 46.99 937.22 46.99 937.22 238.76 958.48 238.76 977.78 238.76 1056.92 238.76 1056.92 198.2 977.78 198.2 977.78 162.11 1042.01 162.11 1042.01 121.54 977.78 121.54 977.78 87.54 1056.92 87.54"/>
    <polygon class="cls-1" points="486.97 46.95 446.65 172.53 406.33 46.95 363.72 46.95 425.31 238.76 467.99 238.76 529.58 46.95 486.97 46.95"/>
    <path class="cls-1" d="M928.31,90.83v-43.84l-43.4,6.2,7.97,6.91-39.19,45.18c-20.95,24.15-21.68,44.09-7.86,57.45l-31.56,36.38-4.84-4.2v43.84l43.4-6.2-7.97-6.91,39.19-45.18c20.95-24.15,21.68-44.09,7.86-57.45l31.56-36.38,4.84,4.2Z"/>
  </g>
  <polygon class="cls-1" points="1396.07 119.68 1396.07 87.76 1301.83 87.76 1301.83 238.75 1318.57 238.75 1333.77 238.75 1396.07 238.75 1396.07 206.81 1333.77 206.81 1333.77 178.4 1384.33 178.4 1384.33 146.46 1333.77 146.46 1333.77 119.68 1396.07 119.68"/>
  <polygon class="cls-1" points="1482.71 87.76 1482.71 173.41 1435.01 88.26 1435.01 87.76 1403.08 87.76 1403.08 238.75 1435.01 238.75 1435.01 153.58 1482.71 238.72 1482.71 238.72 1482.71 238.75 1514.64 238.75 1514.64 87.76 1482.71 87.76"/>
  <polygon class="cls-1" points="1287.77 87.76 1287.77 87.74 1254.23 87.74 1222.49 186.62 1190.74 87.74 1157.2 87.74 1157.2 87.76 1150.15 87.76 1150.15 238.75 1182.08 238.75 1182.08 165.25 1205.68 238.76 1239.29 238.76 1262.89 165.25 1262.89 238.75 1294.82 238.75 1294.82 87.76 1287.77 87.76"/>
  <path class="cls-1" d="M1557.07,234.46c-6.76-2.66-12.7-6.55-18.22-11.87-5.53-5.53-9.62-11.67-12.49-18.43-2.87-6.35-4.5-13.72-4.71-21.91v-93.98h31.94v93.77c0,15.94,14.9,24.76,25.39,24.76s24.67-9.37,24.67-25.37l-.03-93.16h32.07v92.95c.2,7.58-1.23,14.95-4.1,22.11-3.27,7.37-7.37,13.51-12.08,18.22-5.12,5.12-11.06,9.21-18.02,12.28-6.96,3.07-14.33,4.71-22.11,4.91h-.61c-7.78,0-14.95-1.43-21.7-4.3Z"/>
</svg>